<?xml version="1.0" encoding="utf-8"?>
<!-- Generator: Adobe Illustrator 27.0.0, SVG Export Plug-In . SVG Version: 6.00 Build 0)  -->
<!DOCTYPE svg PUBLIC "-//W3C//DTD SVG 1.1//EN" "http://www.w3.org/Graphics/SVG/1.1/DTD/svg11.dtd" [
	<!ENTITY ns_extend "http://ns.adobe.com/Extensibility/1.0/">
	<!ENTITY ns_ai "http://ns.adobe.com/AdobeIllustrator/10.0/">
	<!ENTITY ns_graphs "http://ns.adobe.com/Graphs/1.0/">
	<!ENTITY ns_vars "http://ns.adobe.com/Variables/1.0/">
	<!ENTITY ns_imrep "http://ns.adobe.com/ImageReplacement/1.0/">
	<!ENTITY ns_sfw "http://ns.adobe.com/SaveForWeb/1.0/">
	<!ENTITY ns_custom "http://ns.adobe.com/GenericCustomNamespace/1.0/">
	<!ENTITY ns_adobe_xpath "http://ns.adobe.com/XPath/1.0/">
]>
<svg version="1.1" id="Layer_1" xmlns:x="&ns_extend;" xmlns:i="&ns_ai;" xmlns:graph="&ns_graphs;"
	 xmlns="http://www.w3.org/2000/svg" xmlns:xlink="http://www.w3.org/1999/xlink" x="0px" y="0px" width="155.9px" height="226.8px"
	 viewBox="0 0 155.9 226.8" style="enable-background:new 0 0 155.9 226.8;" xml:space="preserve">
<style type="text/css">
	.st0{stroke:#000000;stroke-width:4;stroke-miterlimit:16;}
	.st1{enable-background:new    ;}
	.st2{fill:none;stroke:#FF0000;stroke-width:0.25;stroke-miterlimit:10;}
</style>
<metadata>
	<sfw  xmlns="&ns_sfw;">
		<slices></slices>
		<sliceSourceBounds  bottomLeftOrigin="true" height="226.8" width="155.9" x="0" y="0"></sliceSourceBounds>
	</sfw>
</metadata>
<g>
<insertqr/>
</g>
<g class="st1">
	<path d="M34.7,41c-0.1,0.2-0.2,0.4-0.4,0.6c-0.2,0.2-0.4,0.3-0.7,0.5c-0.3,0.1-0.6,0.2-0.9,0.3c-0.3,0.1-0.6,0.1-1,0.1
		c-0.7,0-1.3-0.1-1.9-0.3s-1-0.5-1.4-1s-0.6-0.9-0.8-1.5c-0.2-0.6-0.3-1.2-0.3-1.9c0-1.5,0.4-2.7,1.1-3.5s1.7-1.2,3-1.2
		c0.4,0,0.8,0.1,1.2,0.2c0.4,0.1,0.8,0.3,1.1,0.6s0.6,0.6,0.8,1.1c0.2,0.4,0.3,1,0.3,1.6c0,0.2,0,0.4,0,0.6s-0.1,0.4-0.1,0.7h-5.6
		c0,0.5,0.1,1,0.2,1.4s0.3,0.8,0.6,1.1c0.3,0.3,0.6,0.6,1,0.8s0.8,0.3,1.4,0.3c0.4,0,0.8-0.1,1.3-0.2c0.4-0.1,0.8-0.3,1-0.5L34.7,41
		z M31.4,33.8c-0.7,0-1.2,0.2-1.6,0.7s-0.6,1.3-0.6,2.4h4c0-0.1,0-0.2,0-0.3s0-0.2,0-0.3c0-0.8-0.1-1.4-0.4-1.8S32,33.8,31.4,33.8z"
		/>
	<path d="M37,36.6h5.1v1.1H37V36.6z"/>
	<path d="M58.4,42.2H54v-0.5c0.2-0.1,0.5-0.2,0.7-0.2c0.2-0.1,0.5-0.1,0.7-0.2v-8.1l0.1-2.1h-0.1L54.8,33l-3.7,9.2h-0.5L47.1,33
		l-0.6-2.1h-0.2v2.3v8.1c0.2,0,0.5,0.1,0.7,0.2c0.2,0.1,0.5,0.2,0.7,0.3v0.5h-3.8v-0.5c0.2-0.1,0.5-0.2,0.7-0.3s0.5-0.1,0.7-0.2
		V30.6c-0.3,0-0.5-0.1-0.7-0.2s-0.5-0.2-0.7-0.3v-0.5h3.7l3.1,8.2l0.6,1.9l0,0l0.6-1.9l3.2-8.2h3.2v0.5c-0.2,0.1-0.4,0.2-0.7,0.3
		c-0.2,0.1-0.5,0.1-0.7,0.2v10.7c0.3,0,0.5,0.1,0.7,0.2c0.2,0.1,0.4,0.1,0.6,0.2v0.5H58.4z"/>
	<path d="M68,29.6c0,0.5,0,1-0.1,1.4c0,0.5-0.1,1-0.1,1.5h-0.5l-0.7-2h-3.9v4.8h2.9l0.7-1.3h0.5c0.1,1.2,0.1,2.4,0,3.6h-0.5
		l-0.7-1.4h-2.9v5h4.1l0.9-2.2h0.5c0.1,0.5,0.1,1,0.2,1.5c0,0.5,0,1,0,1.6h-8.9v-0.5c0.4-0.2,0.9-0.3,1.5-0.4V30.6
		c-0.2,0-0.5-0.1-0.7-0.2c-0.3-0.1-0.5-0.2-0.7-0.3v-0.5H68z"/>
	<path d="M84.5,42.2h-4.4v-0.5c0.2-0.1,0.5-0.2,0.7-0.2c0.2-0.1,0.5-0.1,0.7-0.2v-8.1l0.1-2.1h-0.1L80.9,33l-3.7,9.2h-0.5L73.2,33
		l-0.6-2.1h-0.2v2.3v8.1c0.2,0,0.5,0.1,0.7,0.2c0.2,0.1,0.5,0.2,0.7,0.3v0.5H70v-0.5c0.2-0.1,0.5-0.2,0.7-0.3s0.5-0.1,0.7-0.2V30.6
		c-0.3,0-0.5-0.1-0.7-0.2s-0.5-0.2-0.7-0.3v-0.5h3.7l3.1,8.2l0.6,1.9l0,0l0.6-1.9l3.2-8.2h3.2v0.5c-0.2,0.1-0.4,0.2-0.7,0.3
		c-0.2,0.1-0.5,0.1-0.7,0.2v10.7c0.3,0,0.5,0.1,0.7,0.2c0.2,0.1,0.4,0.1,0.6,0.2v0.5H84.5z"/>
	<path d="M86,35.9c0-0.9,0.1-1.8,0.4-2.6s0.6-1.5,1.1-2.1s1.1-1,1.8-1.4s1.5-0.5,2.4-0.5s1.7,0.2,2.4,0.5s1.3,0.8,1.8,1.4
		s0.9,1.3,1.1,2.1c0.3,0.8,0.4,1.7,0.4,2.6c0,0.9-0.1,1.8-0.4,2.6s-0.6,1.5-1.1,2.1s-1.1,1-1.8,1.4c-0.7,0.3-1.5,0.5-2.4,0.5
		S90,42.3,89.3,42s-1.3-0.8-1.8-1.4c-0.5-0.6-0.9-1.3-1.1-2.1C86.2,37.7,86,36.9,86,35.9z M87.9,35.9c0,0.8,0.1,1.5,0.2,2.2
		s0.4,1.3,0.7,1.8c0.3,0.5,0.7,0.9,1.2,1.2s1.1,0.4,1.7,0.4s1.1-0.1,1.6-0.4s0.8-0.7,1.1-1.2c0.3-0.5,0.5-1.1,0.7-1.8
		s0.2-1.4,0.2-2.2s-0.1-1.5-0.2-2.2s-0.4-1.3-0.7-1.8c-0.3-0.5-0.7-0.9-1.2-1.2c-0.5-0.3-1.1-0.4-1.7-0.4c-0.7,0-1.2,0.1-1.7,0.4
		s-0.8,0.7-1.1,1.2c-0.3,0.5-0.5,1.1-0.6,1.8S87.9,35.2,87.9,35.9z"/>
	<path d="M102.1,41.3c0.3,0.1,0.5,0.1,0.8,0.2c0.3,0.1,0.5,0.1,0.7,0.2v0.5h-4.7v-0.5c0.3-0.1,0.5-0.2,0.8-0.3
		c0.2-0.1,0.5-0.1,0.7-0.2V30.6c-0.3-0.1-0.6-0.1-0.8-0.2c-0.2-0.1-0.5-0.2-0.6-0.2v-0.5h1.6c0.5,0,1,0,1.6-0.1s1.1-0.1,1.7-0.1
		s1.1,0.1,1.7,0.2c0.5,0.1,1,0.3,1.3,0.6s0.7,0.7,0.9,1.1c0.2,0.4,0.3,1,0.3,1.6c0,0.9-0.2,1.6-0.7,2.2c-0.5,0.6-1.1,1-1.9,1.2
		c0.5,0.8,1.1,1.6,1.6,2.4c0.6,0.8,1.2,1.6,1.8,2.4l1,0.5v0.5h-2.2l-0.7-0.5c-0.3-0.4-0.6-0.8-0.9-1.2s-0.5-0.8-0.8-1.2
		c-0.2-0.4-0.5-0.8-0.7-1.3c-0.2-0.4-0.4-0.9-0.6-1.4h-1.7v4.7H102.1z M103.3,30.4c-0.3,0-0.5,0-0.7,0s-0.4,0-0.5,0.1v5.3h1.3
		c0.8,0,1.5-0.3,2-0.8s0.7-1.2,0.7-2.1c0-0.9-0.3-1.5-0.8-1.9C104.8,30.6,104.2,30.4,103.3,30.4z"/>
	<path d="M115.3,42.2h-4.6v-0.5c0.5-0.2,0.9-0.4,1.4-0.4V30.6c-0.2,0-0.5-0.1-0.7-0.2s-0.5-0.2-0.7-0.3v-0.5h4.6v0.5
		c-0.2,0.1-0.4,0.2-0.7,0.3c-0.3,0.1-0.5,0.1-0.7,0.2v10.7c0.3,0,0.5,0.1,0.8,0.2c0.3,0.1,0.5,0.2,0.7,0.3v0.4H115.3z"/>
	<path d="M120.2,42.2h-4v-0.5c0.4-0.2,0.9-0.3,1.3-0.4l4.6-11.9h0.5l4.6,11.9c0.2,0,0.5,0.1,0.7,0.2c0.2,0.1,0.5,0.2,0.7,0.3v0.5
		H124v-0.5c0.2-0.1,0.5-0.2,0.7-0.3c0.3-0.1,0.5-0.1,0.7-0.2l-1.2-3.3h-4.3l-1.2,3.3c0.5,0.1,1,0.2,1.5,0.4
		C120.2,41.7,120.2,42.2,120.2,42.2z M120.2,37.1h3.6l-1.4-3.8l-0.3-1.5l0,0l-0.4,1.6L120.2,37.1z"/>
</g>
<g class="st1">
	<path d="M66,193.1l-0.6-0.1v-0.2c0.2-0.1,0.4-0.1,0.6-0.2c0.2,0,0.4-0.1,0.6-0.1h0.2v3l0,0c0.1-0.3,0.3-0.5,0.5-0.7
		s0.5-0.3,0.8-0.3c0.5,0,0.9,0.2,1.2,0.5c0.3,0.4,0.4,0.9,0.4,1.6c0,0.8-0.2,1.3-0.6,1.7s-0.9,0.6-1.6,0.6c-0.1,0-0.3,0-0.4,0
		s-0.3,0-0.4-0.1c-0.1,0-0.2-0.1-0.4-0.1c-0.1,0-0.2-0.1-0.3-0.1C66,198.6,66,193.1,66,193.1z M67.8,195c-0.3,0-0.5,0.1-0.7,0.3
		s-0.3,0.4-0.4,0.7v2.4c0.1,0.1,0.2,0.1,0.4,0.1c0.1,0,0.3,0,0.5,0c0.4,0,0.7-0.2,0.9-0.5c0.2-0.3,0.3-0.8,0.3-1.4
		c0-0.2,0-0.4-0.1-0.6c0-0.2-0.1-0.4-0.2-0.5s-0.2-0.3-0.3-0.3C68.1,195.1,68,195,67.8,195z"/>
	<path d="M70.3,195c-0.1,0-0.2-0.1-0.2-0.1c-0.1,0-0.1-0.1-0.2-0.1v-0.2h1.8v0.2c-0.1,0.1-0.3,0.2-0.5,0.2l1.1,2.5l0.2,0.5l0,0
		l0.1-0.5l0.8-2.5c-0.2,0-0.3-0.1-0.5-0.2v-0.2h1.5v0.2c-0.1,0.1-0.3,0.1-0.5,0.2l-1.3,3.8c-0.1,0.4-0.3,0.7-0.4,0.9
		s-0.2,0.4-0.4,0.5c-0.1,0.1-0.2,0.2-0.4,0.3s-0.3,0.1-0.4,0.1c-0.1-0.1-0.1-0.2-0.2-0.4c0-0.1-0.1-0.3-0.1-0.4l0.1-0.2h0.9l0.1-0.1
		c0,0,0.1-0.1,0.1-0.2c0-0.1,0.1-0.1,0.1-0.2c0-0.1,0.1-0.2,0.1-0.4L70.3,195z"/>
</g>
<g>
	<path d="M76.9,199.1c-0.3,0-0.5-0.1-0.7-0.3s-0.3-0.4-0.3-0.7s0.1-0.5,0.3-0.7c0.2-0.2,0.4-0.3,0.7-0.3s0.5,0.1,0.7,0.3
		s0.3,0.4,0.3,0.7s-0.1,0.5-0.3,0.7C77.3,199,77.1,199.1,76.9,199.1z M84.4,188.1l5,10.8h-1.9l-3.6-8.7L84.4,188.1z M81,197.8
		c-0.1,0.3-0.1,0.6,0.1,0.8s0.4,0.3,0.6,0.3h0.1v0.2h-3.4v-0.2c0,0,0,0,0.1,0h0.1c0.2,0,0.5-0.1,0.7-0.2c0.3-0.2,0.5-0.4,0.7-0.8h1
		L81,197.8L81,197.8z M84.4,188.1l0.1,1.5l-4,9.3h-1.2l4.2-8.9c0,0,0.1-0.1,0.1-0.3c0.1-0.2,0.1-0.4,0.2-0.6
		c0.1-0.2,0.2-0.4,0.2-0.6c0.1-0.2,0.1-0.4,0.1-0.5h0.3C84.4,188,84.4,188.1,84.4,188.1z M86.3,195.1v0.6h-4.6v-0.6H86.3z
		 M86.9,197.8h1.9c0.2,0.4,0.4,0.7,0.7,0.8c0.3,0.2,0.5,0.2,0.7,0.2c0,0,0,0,0.1,0h0.1v0.2h-4.1v-0.2h0.1c0.2,0,0.4-0.1,0.5-0.3
		C87.1,198.4,87.1,198.1,86.9,197.8z M92.6,188.5H95c0.4,0,0.8,0,1.2,0.1c0.4,0.1,0.8,0.2,1.2,0.4c0.4,0.2,0.7,0.4,1,0.8
		c0.3,0.4,0.4,0.8,0.4,1.4c0,0.4-0.1,0.7-0.3,1c-0.2,0.3-0.4,0.6-0.7,0.8c-0.3,0.2-0.6,0.3-0.9,0.4c0.6,0,1,0.2,1.5,0.5
		c0.4,0.2,0.8,0.6,1,1c0.3,0.4,0.4,0.8,0.4,1.3c0,0.6-0.1,1-0.4,1.4c-0.2,0.4-0.6,0.7-1,0.9s-0.8,0.4-1.3,0.5s-1,0.1-1.4,0.1h-2
		c0,0,0,0,0-0.1s0-0.2,0-0.3s0-0.1,0-0.1h1.7c0.5,0,0.9-0.1,1.3-0.2c0.4-0.2,0.7-0.4,0.9-0.8c0.2-0.4,0.4-0.8,0.4-1.4
		c0-0.5-0.1-0.9-0.3-1.3c-0.2-0.3-0.5-0.6-0.8-0.8s-0.7-0.3-1.1-0.4c-0.4-0.1-0.9-0.1-1.3-0.1v-0.2c0.3,0,0.6,0,0.9-0.1
		s0.6-0.2,0.9-0.3c0.3-0.2,0.5-0.4,0.7-0.6c0.2-0.3,0.3-0.6,0.3-1.1c0-0.8-0.2-1.3-0.6-1.6s-1-0.5-1.7-0.5h-2c0,0,0-0.1-0.1-0.2
		c0-0.1,0-0.2-0.1-0.3C92.6,188.5,92.6,188.5,92.6,188.5z M93.8,188.5V199h-1.6v-10.6h1.6V188.5z M92.3,197.9v1.1H91v-0.2
		c0,0,0,0,0.1,0s0.1,0,0.1,0c0.3,0,0.6-0.1,0.7-0.3C92.1,198.4,92.2,198.1,92.3,197.9L92.3,197.9z M92.3,189.6L92.3,189.6
		c-0.1-0.3-0.1-0.5-0.3-0.7c-0.2-0.2-0.4-0.3-0.7-0.3c0,0,0,0-0.1,0s-0.1,0-0.1,0v-0.2h1.3v1.2H92.3z M107.3,188.2
		c0.9,0,1.7,0.1,2.4,0.4c0.7,0.3,1.4,0.6,1.9,1.1c0.6,0.5,1,1.1,1.3,1.7c0.3,0.7,0.5,1.4,0.5,2.3c0,0.8-0.2,1.6-0.5,2.3
		s-0.7,1.3-1.3,1.7c-0.5,0.5-1.2,0.9-1.9,1.1c-0.7,0.3-1.5,0.4-2.4,0.4s-1.6-0.1-2.4-0.4c-0.7-0.3-1.4-0.6-1.9-1.1
		c-0.6-0.5-1-1.1-1.3-1.7c-0.3-0.7-0.4-1.4-0.4-2.3c0-0.8,0.1-1.6,0.4-2.3s0.7-1.3,1.3-1.7c0.6-0.5,1.2-0.9,1.9-1.1
		C105.7,188.3,106.5,188.2,107.3,188.2z M107.3,198.7c0.8,0,1.6-0.2,2.2-0.6c0.6-0.4,1.2-1,1.5-1.7c0.4-0.7,0.6-1.6,0.6-2.6
		s-0.2-1.9-0.6-2.6c-0.4-0.7-0.9-1.3-1.5-1.7s-1.4-0.6-2.2-0.6c-0.8,0-1.5,0.2-2.2,0.6c-0.6,0.4-1.2,1-1.5,1.7
		c-0.4,0.7-0.6,1.6-0.6,2.6s0.2,1.8,0.6,2.6c0.4,0.7,0.9,1.3,1.5,1.7C105.8,198.5,106.5,198.7,107.3,198.7z M119.5,199.3l-4.9-10.7
		h1.9l3.6,8.6L119.5,199.3z M119.5,199.3l-0.1-1.5l4-9.3h1.2l-4.1,8.8c0,0-0.1,0.1-0.1,0.3c-0.1,0.2-0.2,0.3-0.2,0.6
		c-0.1,0.2-0.2,0.4-0.2,0.6c-0.1,0.2-0.1,0.4-0.1,0.5L119.5,199.3L119.5,199.3z M122.9,189.7c0.1-0.3,0.1-0.6-0.1-0.8
		s-0.4-0.3-0.6-0.3h-0.1v-0.2h3.4v0.2c0,0,0,0-0.1,0h-0.1c-0.2,0-0.5,0.1-0.8,0.2c-0.3,0.2-0.5,0.4-0.7,0.8h-0.9
		C122.9,189.6,122.9,189.7,122.9,189.7z M117,189.7h-1.9c-0.2-0.4-0.4-0.7-0.7-0.8c-0.3-0.2-0.5-0.2-0.7-0.2c0,0,0,0-0.1,0h-0.1
		v-0.2h4.1v0.2h-0.1c-0.2,0-0.4,0.1-0.5,0.3C116.9,189.1,116.8,189.4,117,189.7z M129,188.5V199h-1.6v-10.6h1.6V188.5z M133.6,198.4
		l0.1,0.6H129v-0.6H133.6z M132.8,193.5v0.6H129v-0.6H132.8z M133.6,188.5v0.6H129v-0.6H133.6z M134.6,196.3l-0.9,2.8h-2.8l0.6-0.6
		c0.6,0,1-0.1,1.4-0.3s0.7-0.4,0.9-0.8c0.2-0.3,0.4-0.7,0.6-1.1L134.6,196.3L134.6,196.3z M132.8,194v1.2h-0.2V195
		c0-0.3-0.1-0.5-0.2-0.7c-0.2-0.2-0.4-0.3-0.7-0.3l0,0H132.8z M132.8,192.3v1.2h-1.1l0,0c0.3,0,0.5-0.1,0.7-0.3s0.2-0.4,0.2-0.7
		v-0.2H132.8z M133.6,189v1.4h-0.2v-0.2c0-0.3-0.1-0.6-0.3-0.8s-0.5-0.3-0.8-0.3V189H133.6z M133.6,188.2v0.5l-2-0.2
		c0.4,0,0.7,0,1.1-0.1C133.2,188.3,133.5,188.2,133.6,188.2z M127.5,197.9l0.2,1.1h-1.5v-0.2c0,0,0,0,0.1,0s0.1,0,0.1,0
		c0.3,0,0.5-0.1,0.7-0.3C127.3,198.4,127.4,198.1,127.5,197.9L127.5,197.9z M127.5,189.6L127.5,189.6c0-0.3-0.1-0.5-0.3-0.7
		c-0.2-0.2-0.4-0.3-0.7-0.3h-0.1c-0.1,0-0.1,0-0.1,0v-0.2h1.5L127.5,189.6z"/>
</g>
<path class="st2" d="M133.1,226.6H22.8c-12.5,0-22.7-10.2-22.7-22.7V22.8c0-12.5,10.2-22.7,22.7-22.7h110.3
	c12.5,0,22.7,10.2,22.7,22.7V204C155.7,216.5,145.6,226.6,133.1,226.6z"/>
</svg>
