<?xml version="1.0" encoding="utf-8"?>
<!-- Generator: Adobe Illustrator 27.0.0, SVG Export Plug-In . SVG Version: 6.00 Build 0)  -->
<!DOCTYPE svg PUBLIC "-//W3C//DTD SVG 1.1//EN" "http://www.w3.org/Graphics/SVG/1.1/DTD/svg11.dtd" [
	<!ENTITY ns_extend "http://ns.adobe.com/Extensibility/1.0/">
	<!ENTITY ns_ai "http://ns.adobe.com/AdobeIllustrator/10.0/">
	<!ENTITY ns_graphs "http://ns.adobe.com/Graphs/1.0/">
	<!ENTITY ns_vars "http://ns.adobe.com/Variables/1.0/">
	<!ENTITY ns_imrep "http://ns.adobe.com/ImageReplacement/1.0/">
	<!ENTITY ns_sfw "http://ns.adobe.com/SaveForWeb/1.0/">
	<!ENTITY ns_custom "http://ns.adobe.com/GenericCustomNamespace/1.0/">
	<!ENTITY ns_adobe_xpath "http://ns.adobe.com/XPath/1.0/">
]>
<svg version="1.1" id="Layer_1" xmlns:x="&ns_extend;" xmlns:i="&ns_ai;" xmlns:graph="&ns_graphs;"
	 xmlns="http://www.w3.org/2000/svg" xmlns:xlink="http://www.w3.org/1999/xlink" x="0px" y="0px" width="155.9px" height="226.8px"
	 viewBox="0 0 155.9 226.8" style="enable-background:new 0 0 155.9 226.8;" xml:space="preserve">
<style type="text/css">
	.st0{stroke:#000000;stroke-width:4;stroke-miterlimit:16;}
	.st1{enable-background:new    ;}
	.st2{fill:none;stroke:#FF0000;stroke-width:0.1;stroke-miterlimit:10;}
</style>
<metadata>
	<sfw  xmlns="&ns_sfw;">
		<slices></slices>
		<sliceSourceBounds  bottomLeftOrigin="true" height="226.8" width="155.9" x="0" y="0"></sliceSourceBounds>
	</sfw>
</metadata>
<g>
	<insertqr/>
</g>
<g class="st1">
	<path d="M34.7,41c-0.1,0.2-0.2,0.4-0.4,0.6c-0.2,0.2-0.4,0.3-0.7,0.5c-0.3,0.1-0.6,0.2-0.9,0.3c-0.3,0.1-0.6,0.1-1,0.1
		c-0.7,0-1.3-0.1-1.9-0.3s-1-0.5-1.4-1s-0.6-0.9-0.8-1.5c-0.2-0.6-0.3-1.2-0.3-1.9c0-1.5,0.4-2.7,1.1-3.5s1.7-1.2,3-1.2
		c0.4,0,0.8,0.1,1.2,0.2c0.4,0.1,0.8,0.3,1.1,0.6s0.6,0.6,0.8,1.1c0.2,0.4,0.3,1,0.3,1.6c0,0.2,0,0.4,0,0.6s-0.1,0.4-0.1,0.7h-5.6
		c0,0.5,0.1,1,0.2,1.4s0.3,0.8,0.6,1.1c0.3,0.3,0.6,0.6,1,0.8s0.8,0.3,1.4,0.3c0.4,0,0.8-0.1,1.3-0.2c0.4-0.1,0.8-0.3,1-0.5L34.7,41
		z M31.4,33.8c-0.7,0-1.2,0.2-1.6,0.7s-0.6,1.3-0.6,2.4h4c0-0.1,0-0.2,0-0.3s0-0.2,0-0.3c0-0.8-0.1-1.4-0.4-1.8S32,33.8,31.4,33.8z"
		/>
	<path d="M37,36.6h5.1v1.1H37V36.6z"/>
	<path d="M58.4,42.2H54v-0.5c0.2-0.1,0.5-0.2,0.7-0.2c0.2-0.1,0.5-0.1,0.7-0.2v-8.1l0.1-2.1h-0.1L54.8,33l-3.7,9.2h-0.5L47.1,33
		l-0.6-2.1h-0.2v2.3v8.1c0.2,0,0.5,0.1,0.7,0.2c0.2,0.1,0.5,0.2,0.7,0.3v0.5h-3.8v-0.5c0.2-0.1,0.5-0.2,0.7-0.3s0.5-0.1,0.7-0.2
		V30.6c-0.3,0-0.5-0.1-0.7-0.2s-0.5-0.2-0.7-0.3v-0.5h3.7l3.1,8.2l0.6,1.9l0,0l0.6-1.9l3.2-8.2h3.2v0.5c-0.2,0.1-0.4,0.2-0.7,0.3
		c-0.2,0.1-0.5,0.1-0.7,0.2v10.7c0.3,0,0.5,0.1,0.7,0.2c0.2,0.1,0.4,0.1,0.6,0.2v0.5H58.4z"/>
	<path d="M68,29.6c0,0.5,0,1-0.1,1.4c0,0.5-0.1,1-0.1,1.5h-0.5l-0.7-2h-3.9v4.8h2.9l0.7-1.3h0.5c0.1,1.2,0.1,2.4,0,3.6h-0.5
		l-0.7-1.4h-2.9v5h4.1l0.9-2.2h0.5c0.1,0.5,0.1,1,0.2,1.5c0,0.5,0,1,0,1.6h-8.9v-0.5c0.4-0.2,0.9-0.3,1.5-0.4V30.6
		c-0.2,0-0.5-0.1-0.7-0.2c-0.3-0.1-0.5-0.2-0.7-0.3v-0.5H68z"/>
	<path d="M84.5,42.2h-4.4v-0.5c0.2-0.1,0.5-0.2,0.7-0.2c0.2-0.1,0.5-0.1,0.7-0.2v-8.1l0.1-2.1h-0.1L80.9,33l-3.7,9.2h-0.5L73.2,33
		l-0.6-2.1h-0.2v2.3v8.1c0.2,0,0.5,0.1,0.7,0.2c0.2,0.1,0.5,0.2,0.7,0.3v0.5H70v-0.5c0.2-0.1,0.5-0.2,0.7-0.3s0.5-0.1,0.7-0.2V30.6
		c-0.3,0-0.5-0.1-0.7-0.2s-0.5-0.2-0.7-0.3v-0.5h3.7l3.1,8.2l0.6,1.9l0,0l0.6-1.9l3.2-8.2h3.2v0.5c-0.2,0.1-0.4,0.2-0.7,0.3
		c-0.2,0.1-0.5,0.1-0.7,0.2v10.7c0.3,0,0.5,0.1,0.7,0.2c0.2,0.1,0.4,0.1,0.6,0.2v0.5H84.5z"/>
	<path d="M86,35.9c0-0.9,0.1-1.8,0.4-2.6s0.6-1.5,1.1-2.1s1.1-1,1.8-1.4s1.5-0.5,2.4-0.5s1.7,0.2,2.4,0.5s1.3,0.8,1.8,1.4
		s0.9,1.3,1.1,2.1c0.3,0.8,0.4,1.7,0.4,2.6c0,0.9-0.1,1.8-0.4,2.6s-0.6,1.5-1.1,2.1s-1.1,1-1.8,1.4c-0.7,0.3-1.5,0.5-2.4,0.5
		S90,42.3,89.3,42s-1.3-0.8-1.8-1.4c-0.5-0.6-0.9-1.3-1.1-2.1C86.2,37.7,86,36.9,86,35.9z M87.9,35.9c0,0.8,0.1,1.5,0.2,2.2
		s0.4,1.3,0.7,1.8c0.3,0.5,0.7,0.9,1.2,1.2s1.1,0.4,1.7,0.4s1.1-0.1,1.6-0.4s0.8-0.7,1.1-1.2c0.3-0.5,0.5-1.1,0.7-1.8
		s0.2-1.4,0.2-2.2s-0.1-1.5-0.2-2.2s-0.4-1.3-0.7-1.8c-0.3-0.5-0.7-0.9-1.2-1.2c-0.5-0.3-1.1-0.4-1.7-0.4c-0.7,0-1.2,0.1-1.7,0.4
		s-0.8,0.7-1.1,1.2c-0.3,0.5-0.5,1.1-0.6,1.8S87.9,35.2,87.9,35.9z"/>
	<path d="M102.1,41.3c0.3,0.1,0.5,0.1,0.8,0.2c0.3,0.1,0.5,0.1,0.7,0.2v0.5h-4.7v-0.5c0.3-0.1,0.5-0.2,0.8-0.3
		c0.2-0.1,0.5-0.1,0.7-0.2V30.6c-0.3-0.1-0.6-0.1-0.8-0.2c-0.2-0.1-0.5-0.2-0.6-0.2v-0.5h1.6c0.5,0,1,0,1.6-0.1s1.1-0.1,1.7-0.1
		s1.1,0.1,1.7,0.2c0.5,0.1,1,0.3,1.3,0.6s0.7,0.7,0.9,1.1c0.2,0.4,0.3,1,0.3,1.6c0,0.9-0.2,1.6-0.7,2.2c-0.5,0.6-1.1,1-1.9,1.2
		c0.5,0.8,1.1,1.6,1.6,2.4c0.6,0.8,1.2,1.6,1.8,2.4l1,0.5v0.5h-2.2l-0.7-0.5c-0.3-0.4-0.6-0.8-0.9-1.2s-0.5-0.8-0.8-1.2
		c-0.2-0.4-0.5-0.8-0.7-1.3c-0.2-0.4-0.4-0.9-0.6-1.4h-1.7v4.7C102.3,41.3,102.1,41.3,102.1,41.3z M103.3,30.4c-0.3,0-0.5,0-0.7,0
		s-0.4,0-0.5,0.1v5.3h1.3c0.8,0,1.5-0.3,2-0.8s0.7-1.2,0.7-2.1c0-0.9-0.3-1.5-0.8-1.9C104.8,30.6,104.2,30.4,103.3,30.4z"/>
	<path d="M115.3,42.2h-4.6v-0.5c0.5-0.2,0.9-0.4,1.4-0.4V30.6c-0.2,0-0.5-0.1-0.7-0.2s-0.5-0.2-0.7-0.3v-0.5h4.6v0.5
		c-0.2,0.1-0.4,0.2-0.7,0.3c-0.3,0.1-0.5,0.1-0.7,0.2v10.7c0.3,0,0.5,0.1,0.8,0.2c0.3,0.1,0.5,0.2,0.7,0.3v0.4H115.3z"/>
	<path d="M120.2,42.2h-4v-0.5c0.4-0.2,0.9-0.3,1.3-0.4l4.6-11.9h0.5l4.6,11.9c0.2,0,0.5,0.1,0.7,0.2c0.2,0.1,0.5,0.2,0.7,0.3v0.5
		H124v-0.5c0.2-0.1,0.5-0.2,0.7-0.3c0.3-0.1,0.5-0.1,0.7-0.2l-1.2-3.3h-4.3l-1.2,3.3c0.5,0.1,1,0.2,1.5,0.4V42.2z M120.2,37.1h3.6
		l-1.4-3.8l-0.3-1.5l0,0l-0.4,1.6L120.2,37.1z"/>
</g>
<rect x="0" y="0" class="st2" width="155.8" height="226.7"/>
<g>
	<path d="M73.1,186.9l-0.9-0.1v-0.3c0.2-0.1,0.5-0.2,0.8-0.3c0.3-0.1,0.6-0.1,0.9-0.2h0.3v4.2h0c0.1-0.4,0.4-0.7,0.7-1
		c0.3-0.2,0.7-0.4,1.1-0.4c0.7,0,1.3,0.2,1.7,0.7c0.4,0.5,0.6,1.3,0.6,2.3c0,1.1-0.3,1.9-0.8,2.4c-0.5,0.5-1.3,0.8-2.3,0.8
		c-0.2,0-0.4,0-0.6,0c-0.2,0-0.4-0.1-0.6-0.1s-0.4-0.1-0.5-0.1c-0.1-0.1-0.3-0.1-0.4-0.2V186.9z M75.7,189.6c-0.4,0-0.7,0.1-0.9,0.4
		c-0.2,0.3-0.4,0.6-0.5,1v3.3c0.1,0.1,0.3,0.1,0.5,0.2c0.2,0,0.4,0.1,0.7,0.1c0.5,0,0.9-0.2,1.2-0.7c0.3-0.5,0.5-1.1,0.5-2
		c0-0.3,0-0.6-0.1-0.9c-0.1-0.3-0.1-0.5-0.3-0.7c-0.1-0.2-0.3-0.4-0.4-0.5C76.1,189.7,75.9,189.6,75.7,189.6z"/>
	<path d="M79.2,189.6c-0.1,0-0.2-0.1-0.3-0.1c-0.1,0-0.2-0.1-0.3-0.2V189h2.5v0.3c-0.2,0.1-0.4,0.2-0.7,0.3l1.5,3.6l0.2,0.7h0
		l0.2-0.8l1.1-3.5c-0.2,0-0.5-0.1-0.7-0.3V189h2.1v0.3c-0.2,0.1-0.4,0.2-0.7,0.3l-1.9,5.4c-0.2,0.5-0.4,0.9-0.5,1.2
		c-0.2,0.3-0.3,0.6-0.5,0.8c-0.2,0.2-0.3,0.3-0.5,0.4s-0.4,0.1-0.6,0.2c-0.1-0.2-0.2-0.3-0.2-0.5c-0.1-0.2-0.1-0.4-0.2-0.5l0.2-0.3
		h1.2c0-0.1,0.1-0.1,0.1-0.2c0-0.1,0.1-0.1,0.1-0.2c0-0.1,0.1-0.2,0.1-0.3c0-0.1,0.1-0.3,0.2-0.5L79.2,189.6z"/>
	<path d="M92.6,193.5c0,0.2,0,0.3,0,0.5s0,0.3,0,0.4l0.8,0.1v0.3c-0.2,0.1-0.4,0.2-0.7,0.3c-0.2,0.1-0.5,0.1-0.7,0.2h-0.3
		c-0.1-0.2-0.1-0.4-0.1-0.6c0-0.2,0-0.5,0-0.7h-0.1c0,0.2-0.1,0.3-0.2,0.5c-0.1,0.2-0.2,0.3-0.4,0.4c-0.1,0.1-0.3,0.2-0.5,0.3
		c-0.2,0.1-0.4,0.1-0.7,0.1c-0.5,0-0.9-0.1-1.2-0.4c-0.3-0.3-0.5-0.7-0.5-1.2c0-0.4,0.1-0.7,0.2-0.9c0.1-0.2,0.4-0.4,0.7-0.6
		s0.6-0.2,1.1-0.3c0.4-0.1,0.9-0.1,1.5-0.1c0-0.3,0-0.7,0-0.9s-0.1-0.5-0.1-0.7s-0.2-0.3-0.3-0.5c-0.1-0.1-0.3-0.2-0.6-0.2
		c-0.1,0-0.2,0-0.4,0c-0.1,0-0.3,0-0.4,0.1l-0.6,1.4h-0.3c-0.1-0.2-0.2-0.5-0.2-0.7s-0.1-0.5-0.1-0.8c0.3-0.2,0.6-0.3,1-0.4
		c0.4-0.1,0.8-0.2,1.2-0.2c0.4,0,0.7,0.1,1,0.2c0.2,0.1,0.4,0.3,0.6,0.5c0.1,0.2,0.2,0.4,0.3,0.6c0,0.2,0.1,0.4,0.1,0.7
		c0,0.5,0,0.9,0,1.4C92.7,192.6,92.6,193.1,92.6,193.5z M90.3,194.4c0.2,0,0.4,0,0.5-0.1s0.3-0.2,0.4-0.3c0.1-0.1,0.2-0.2,0.3-0.3
		c0.1-0.1,0.1-0.2,0.1-0.3v-1.3c-0.5,0-0.8,0-1.1,0.1s-0.5,0.1-0.7,0.2c-0.2,0.1-0.3,0.2-0.3,0.4c-0.1,0.2-0.1,0.3-0.1,0.5
		c0,0.3,0.1,0.6,0.3,0.8C89.8,194.3,90,194.4,90.3,194.4z"/>
	<path d="M94.7,186.9l-0.9-0.1v-0.3c0.2-0.1,0.5-0.2,0.8-0.3c0.3-0.1,0.6-0.1,0.9-0.2h0.3v4.2h0c0.1-0.4,0.4-0.7,0.7-1
		s0.7-0.4,1.1-0.4c0.7,0,1.3,0.2,1.7,0.7c0.4,0.5,0.6,1.3,0.6,2.3c0,1.1-0.3,1.9-0.8,2.4s-1.3,0.8-2.3,0.8c-0.2,0-0.4,0-0.6,0
		c-0.2,0-0.4-0.1-0.6-0.1c-0.2,0-0.4-0.1-0.5-0.1c-0.1-0.1-0.3-0.1-0.4-0.2V186.9z M97.2,189.6c-0.4,0-0.7,0.1-0.9,0.4
		s-0.4,0.6-0.5,1v3.3c0.1,0.1,0.3,0.1,0.5,0.2s0.4,0.1,0.7,0.1c0.5,0,0.9-0.2,1.2-0.7c0.3-0.5,0.5-1.1,0.5-2c0-0.3,0-0.6-0.1-0.9
		c-0.1-0.3-0.1-0.5-0.3-0.7c-0.1-0.2-0.3-0.4-0.4-0.5S97.5,189.6,97.2,189.6z"/>
	<path d="M100.8,192c0-0.5,0.1-1,0.2-1.3c0.1-0.4,0.3-0.7,0.6-1c0.2-0.3,0.5-0.5,0.9-0.6c0.3-0.1,0.7-0.2,1.2-0.2
		c0.5,0,0.9,0.1,1.3,0.2c0.4,0.2,0.7,0.4,0.9,0.6c0.2,0.3,0.4,0.6,0.5,1c0.1,0.4,0.2,0.8,0.2,1.3c0,1-0.3,1.8-0.8,2.3
		s-1.2,0.8-2.1,0.8c-0.5,0-0.9-0.1-1.2-0.2c-0.4-0.1-0.6-0.4-0.9-0.6c-0.2-0.3-0.4-0.6-0.5-1S100.8,192.5,100.8,192z M102,192
		c0,0.4,0,0.7,0.1,1c0.1,0.3,0.2,0.6,0.3,0.8c0.1,0.2,0.3,0.4,0.6,0.6c0.2,0.1,0.5,0.2,0.9,0.2c0.4,0,0.8-0.2,1.1-0.6
		c0.3-0.4,0.4-1.1,0.4-2c0-0.4,0-0.7-0.1-1c-0.1-0.3-0.2-0.6-0.3-0.8c-0.1-0.2-0.3-0.4-0.6-0.6c-0.2-0.1-0.5-0.2-0.8-0.2
		c-0.5,0-0.9,0.2-1.1,0.6C102.1,190.5,102,191.1,102,192z"/>
	<path d="M109.8,195.2l-2.3-5.5c-0.2-0.1-0.4-0.2-0.6-0.3V189h2.5v0.3c-0.1,0.1-0.2,0.1-0.3,0.2s-0.2,0.1-0.4,0.1l1.4,3.6l0.2,0.7h0
		l0.2-0.8l1.3-3.6c-0.1,0-0.2-0.1-0.4-0.1c-0.1,0-0.2-0.1-0.3-0.2V189h2v0.3c-0.1,0.1-0.2,0.1-0.3,0.2c-0.1,0-0.2,0.1-0.4,0.1
		l-2.1,5.4L109.8,195.2z"/>
	<path d="M118.4,194.2c-0.1,0.1-0.2,0.3-0.3,0.4s-0.3,0.2-0.5,0.3c-0.2,0.1-0.4,0.2-0.6,0.2c-0.2,0.1-0.4,0.1-0.6,0.1
		c-0.5,0-0.9-0.1-1.2-0.2c-0.4-0.1-0.7-0.4-0.9-0.6c-0.2-0.3-0.4-0.6-0.5-1s-0.2-0.8-0.2-1.3c0-1,0.2-1.8,0.7-2.3
		c0.5-0.5,1.1-0.8,2-0.8c0.3,0,0.6,0,0.8,0.1c0.3,0.1,0.5,0.2,0.7,0.4c0.2,0.2,0.4,0.4,0.5,0.7c0.1,0.3,0.2,0.7,0.2,1.1
		c0,0.1,0,0.3,0,0.4c0,0.1,0,0.3-0.1,0.5h-3.7c0,0.3,0,0.7,0.1,0.9s0.2,0.5,0.4,0.8s0.4,0.4,0.6,0.5s0.6,0.2,0.9,0.2
		c0.3,0,0.6,0,0.9-0.1s0.5-0.2,0.6-0.3L118.4,194.2z M116.2,189.4c-0.5,0-0.8,0.2-1,0.5c-0.2,0.3-0.4,0.9-0.4,1.6h2.6
		c0-0.1,0-0.1,0-0.2c0-0.1,0-0.1,0-0.2c0-0.5-0.1-0.9-0.3-1.2C116.9,189.6,116.6,189.4,116.2,189.4z"/>
	<path d="M122.2,195h-2.7v-0.3c0.3-0.1,0.5-0.2,0.8-0.3v-7.6l-0.9-0.1v-0.3c0.2-0.1,0.5-0.2,0.8-0.3c0.3-0.1,0.6-0.1,0.9-0.2h0.3
		v8.4c0.3,0.1,0.5,0.2,0.8,0.3V195z"/>
	<path d="M125.8,195h-2.7v-0.3c0.1-0.1,0.2-0.1,0.4-0.2s0.3-0.1,0.4-0.1v-4.7l-0.8-0.1v-0.3c0.2-0.1,0.5-0.2,0.8-0.3
		c0.3-0.1,0.5-0.1,0.8-0.2h0.3v5.6c0.2,0,0.3,0.1,0.4,0.1s0.2,0.1,0.4,0.2V195z M123.7,187c0-0.2,0.1-0.4,0.2-0.5
		c0.1-0.1,0.3-0.2,0.6-0.2c0.2,0,0.4,0.1,0.6,0.2s0.2,0.3,0.2,0.5s-0.1,0.4-0.2,0.5s-0.3,0.2-0.6,0.2c-0.2,0-0.4-0.1-0.6-0.2
		C123.8,187.4,123.7,187.2,123.7,187z"/>
	<path d="M130,186c0.1,0,0.2,0,0.3,0s0.2,0,0.3,0c0.1,0,0.2,0,0.3,0c0.1,0,0.2,0,0.3,0.1c0,0.3-0.1,0.5-0.1,0.7
		c0,0.2-0.1,0.4-0.2,0.6h-0.3l-0.5-1c-0.2,0-0.4,0-0.6,0.1s-0.3,0.1-0.4,0.3c-0.1,0.1-0.2,0.3-0.2,0.6c-0.1,0.3-0.1,0.6-0.1,1v0.6
		h1.4v0.6h-1.4v4.8c0.4,0,0.8,0.1,1.2,0.3v0.3h-3v-0.3c0.2-0.1,0.5-0.2,0.8-0.3v-4.8h-0.9v-0.3c0.3-0.2,0.6-0.3,0.9-0.4v-0.4
		c0-0.5,0.1-0.9,0.2-1.2s0.3-0.6,0.5-0.8c0.2-0.2,0.5-0.3,0.8-0.4C129.3,186,129.6,186,130,186z"/>
	<path d="M135.8,194.2c-0.1,0.1-0.2,0.3-0.3,0.4s-0.3,0.2-0.5,0.3c-0.2,0.1-0.4,0.2-0.6,0.2c-0.2,0.1-0.4,0.1-0.6,0.1
		c-0.5,0-0.9-0.1-1.2-0.2c-0.4-0.1-0.7-0.4-0.9-0.6c-0.2-0.3-0.4-0.6-0.5-1s-0.2-0.8-0.2-1.3c0-1,0.2-1.8,0.7-2.3
		c0.5-0.5,1.1-0.8,2-0.8c0.3,0,0.6,0,0.8,0.1c0.3,0.1,0.5,0.2,0.7,0.4c0.2,0.2,0.4,0.4,0.5,0.7c0.1,0.3,0.2,0.7,0.2,1.1
		c0,0.1,0,0.3,0,0.4c0,0.1,0,0.3-0.1,0.5H132c0,0.3,0,0.7,0.1,0.9s0.2,0.5,0.4,0.8s0.4,0.4,0.6,0.5s0.6,0.2,0.9,0.2
		c0.3,0,0.6,0,0.9-0.1s0.5-0.2,0.6-0.3L135.8,194.2z M133.6,189.4c-0.5,0-0.8,0.2-1,0.5c-0.2,0.3-0.4,0.9-0.4,1.6h2.6
		c0-0.1,0-0.1,0-0.2c0-0.1,0-0.1,0-0.2c0-0.5-0.1-0.9-0.3-1.2C134.3,189.6,134,189.4,133.6,189.4z"/>
</g>
</svg>
